<svg xmlns="http://www.w3.org/2000/svg" height="800" width="1200" viewBox="-9.108555 -2.63585 78.94081 15.8151"><path d="M6.9468 7.8447c1.367-.7932 2.345-1.7885 2.7958-2.8487.1855-.7628.2916-1.584.2916-2.451 0-.1212-.0056-.2371-.0167-.3477-.0796 1.2821-1.7367 2.8942-3.929 3.948-2.6445 1.2703-4.6286 1.6121-5.5136.643.3075.6072.7191 1.2202 1.1875 1.7698 1.0884.9675 2.8833.621 5.1844-.7134z" fill="#990ae3"/><path d="M5.7797 5.2363c2.4948-1.203 4.232-2.9152 3.929-4.05C9.2113.3275 8.205 0 7.1257 0 3.9264 0 0 2.109 0 4.7994c0 .3456.0762.733.213 1.1375.7297.9686 2.9606.5566 5.5667-.7006zm-.2103 3.8133c-1.7542.7115-2.7585.4845-3.3136.0413l-.008-.0069c.8591.8567 1.8381 1.4592 2.6964 1.4592 1.5036 0 3.562-1.8232 4.536-4.6516-.5488 1.0208-1.7267 2.2751-3.9108 3.158z" fill="#990ae3"/><path d="M5.5694 9.0496c2.1841-.8829 3.362-2.1372 3.911-3.1585.0992-.2881.1873-.5871.2625-.8954-.4511 1.0602-1.429 2.0556-2.7958 2.8488-2.301 1.3343-4.096 1.6811-5.1847.7133.1563.1828.3188.3598.4857.5257l.008.0069c.5548.4437 1.5591.6707 3.3133-.0408zm.5188-2.9043c2.1923-1.0535 3.8494-2.6659 3.929-3.948-.0391-.3977-.147-.7324-.3087-1.0107.3032 1.1348-1.434 2.8469-3.929 4.05C3.173 6.4937.9425 6.9057.2127 5.9368c.0937.2778.216.5643.3617.8514.8855.9691 2.8696.6273 5.5138-.643z" fill="#fff"/><path d="M12.3108 3.9338c-.1363 0-.2728-.1021-.409-.3064-.0892-.1418-.1337-.249-.1337-.3228 0-.1259.0829-.2423.248-.35.165-.1072.3447-.1611.5386-.1611h3.2176c.2046 0 .3067.0942.3067.283 0 .2152-.0577.412-.1728.5898-.1156.1786-.2413.2675-.3775.2675H14.482v3.5558c0 .2153-.058.412-.173.5902-.1157.1786-.2414.267-.3776.267-.1363 0-.2728-.1013-.409-.3064-.0892-.141-.1337-.249-.1337-.3225v-3.784zm4.0201 2.7692c.0577.2465.1836.445.3775.5947.194.1487.4276.2236.7001.2236.231 0 .5062-.0786.8263-.236.1469-.0733.2831-.1098.409-.1098.1678 0 .2517.076.2517.2278a.9006.9006 0 01-.0902.3934c-.0606.126-.1379.2175-.2323.2757-.1781.1096-.3763.1948-.594.2556-.2178.0604-.4342.0908-.649.0908-.3779 0-.7226-.1-1.0348-.2993-.312-.1995-.5546-.4569-.7276-.7715-.173-.3143-.2596-.65-.2596-1.0065 0-.399.0945-.7596.2834-1.0821.1886-.3225.4352-.5715.7392-.7472.3043-.1757.6374-.2635.9993-.2635.3514 0 .667.0828.948.2479.2805.165.4967.3844.649.6567.1522.2728.2281.5712.2281.8975 0 .1677-.0433.318-.1299.4519-.0865.1336-.1823.2003-.287.2003zm.9755-1.5889c-.2519 0-.467.072-.645.2162-.1784.1447-.2885.3365-.3308.5784h1.8569c-.0106-.2254-.0998-.4144-.2675-.5662-.168-.1522-.3726-.2284-.6136-.2284zm3.3041 3.2329c-.236 0-.4405-.0928-.6136-.2788-.173-.186-.2595-.4053-.2595-.657V3.234c0-.1154.0799-.2254.24-.3305.1598-.1047.3315-.1571.5154-.1571.194 0 .291.0891.291.2672v4.0598c0 .0682.0146.1249.0434.1693.0288.0445.08.0826.1535.114.0838.037.126.1101.126.2202 0 .1936-.0525.3712-.1573.5313-.1058.1592-.2185.2389-.3389.2389zm1.5891-4.531c-.1365 0-.278-.107-.4247-.3224-.0997-.152-.1494-.2702-.1494-.3543 0-.1307.0889-.2543.2672-.3696.1783-.1154.3699-.173.5744-.173.2201 0 .3305.0997.3305.2992 0 .1571-.0302.308-.0905.4524-.0604.1442-.1363.2582-.2281.3421-.0923.0839-.1852.1257-.2794.1257zm0 4.531c-.121 0-.2519-.0986-.3937-.2989-.0839-.1357-.1257-.2381-.1257-.3064V4.8072c0-.1153.08-.2254.24-.3304.1598-.1048.3315-.1572.5151-.1572.194 0 .2914.0892.2914.2677v2.934c0 .1416-.0278.2784-.0829.4093-.055.1313-.123.2334-.2042.307-.0815.0732-.1614.1095-.24.1095zm3.0602 0c-.3779 0-.72-.0936-1.0269-.2825-.3066-.189-.5455-.4366-.716-.7435-.1703-.3069-.2555-.6413-.2555-1.0033 0-.3879.097-.7416.2913-1.062.194-.3199.4455-.5678.7551-.7435.3093-.1757.6424-.2635.9993-.2635.304 0 .6004.0839.8888.2516.1836-.1207.3672-.181.5508-.181.194 0 .2913.0892.2913.2678v2.934c0 .1415-.028.2783-.0828.4093-.055.1312-.123.2333-.2045.3069-.0812.0733-.1611.1095-.2397.1095-.1207 0-.2516-.0987-.3934-.299-.0524-.0833-.0895-.1569-.1098-.2201-.0421.1156-.0985.2151-.1694.2995-.0709.0839-.1455.1386-.224.1654-.111.0367-.229.0545-.3546.0545zm.0704-.975c.2362 0 .4564-.0655.6611-.1965v-1.786c-.1942-.1103-.4116-.165-.653-.165-.299 0-.5492.101-.7511.303-.2019.2018-.303.4553-.303.759s.1009.5614.303.771c.2019.2098.4493.3146.743.3146zm7.3953-3.2646c-.0524 0-.1156-.0183-.1886-.055-.3202-.1625-.6295-.2443-.9284-.2443-.3305 0-.6258.0789-.885.2363-.2596.1574-.4594.3689-.5983.6334-.139.2649-.2085.5572-.2085.8774 0 .336.0744.6358.2244.9006.1495.2649.3474.4691.594.6136.2463.1437.519.2159.818.2159.3461 0 .6872-.076 1.0227-.2278.1783-.0788.3225-.1177.4328-.1177.189 0 .2831.0912.2831.2751 0 .1363-.0288.2712-.0865.4046-.0582.1341-.131.2405-.2204.319-.168.1416-.3921.2567-.6726.3464-.2804.0889-.5598.1341-.8376.1341-.5141 0-.9798-.132-1.3965-.394-.417-.2619-.7395-.6066-.9676-1.0342-.228-.4273-.342-.8903-.342-1.3885 0-.5453.1351-1.0435.405-1.4946.2701-.4512.6228-.8025 1.0583-1.0544.435-.2514.9017-.3776 1.4002-.3776.5456 0 1.0356.1366 1.471.4093.079.0471.118.126.118.236a.9875.9875 0 01-.1573.539c-.1048.1643-.2175.2474-.3382.2474zm2.9501.1416c.3932 0 .7483.0968 1.0658.2913.317.1939.5625.4492.7355.7667.173.3175.2596.6594.2596 1.0266 0 .399-.0956.758-.2874 1.0776-.1915.3202-.4434.5676-.755.744-.312.1752-.652.2638-1.0187.2638-.3932 0-.749-.0976-1.0663-.2915-.3172-.194-.5625-.4498-.7356-.7673-.173-.3173-.2595-.6591-.2595-1.0266 0-.3982.0958-.7572.2876-1.0777.1916-.3198.443-.5677.7549-.7434.3119-.1757.6519-.2636 1.0191-.2636zm0 3.1937c.2882 0 .531-.1058.7276-.318.1966-.2127.295-.4765.295-.7911 0-.3146-.0984-.5784-.295-.7903-.1966-.2127-.4394-.3186-.7276-.3186-.2886 0-.5313.1059-.7278.3186-.1966.2122-.2948.4757-.2948.7903s.0982.5786.2948.7911c.1965.2122.4392.318.7278.318zm5.3576.9043c-.1212 0-.2524-.0986-.3937-.2989-.0836-.1357-.126-.2381-.126-.3064V5.7282c0-.1159-.0328-.2095-.0981-.2833-.0656-.0733-.1487-.1104-.248-.1104-.2412 0-.5246.131-.8495.3937v1.7931a1.048 1.048 0 01-.0828.4093c-.055.1313-.1228.2334-.204.307-.0818.0732-.1614.1095-.2403.1095-.1206 0-.2519-.0987-.3931-.299-.0842-.1357-.126-.2381-.126-.3064V4.8072c0-.1153.08-.2254.24-.3304.1598-.1048.3315-.1572.5151-.1572.1937 0 .2913.0892.2913.2677v.1572c.2093-.1677.4078-.2924.5938-.3738.186-.0813.3738-.1218.5625-.1218.1886 0 .3659.0548.531.1651.165.1101.2976.2652.3974.4644.472-.4196.9096-.6295 1.3137-.6295.21 0 .3974.0617.563.185.1648.123.2929.2868.3852.4913.0916.2045.1379.43.1379.6768v1.9193a1.048 1.048 0 01-.0828.4093c-.0548.1313-.123.2334-.2043.307-.0818.0732-.1611.1095-.2397.1095-.1207 0-.2522-.0987-.3935-.299-.0838-.1357-.1259-.2381-.1259-.3064V5.7282c0-.1159-.033-.2095-.0984-.2833-.0656-.0733-.1485-.1104-.248-.1104-.2412 0-.5246.131-.8495.3937v1.7931c0 .1416-.0275.2784-.0828.4093-.055.1313-.1228.2334-.204.307-.0823.0732-.162.1095-.2405.1095zm3.8864 1.4635c-.1206 0-.2521-.0998-.3937-.299-.0836-.1363-.1256-.2386-.1256-.3059V4.8072c0-.1153.0796-.2254.2394-.3304.16-.1048.3318-.1572.5152-.1572.1783 0 .2756.0786.2915.236.304-.2045.6242-.3067.9597-.3067.341 0 .6477.0919.9205.2752.2727.1836.4826.4289.6294.7356.1468.3071.2201.6442.2201 1.011 0 .409-.0865.7754-.2595 1.0974-.1728.3228-.4035.5713-.692.7472-.2888.1752-.6055.2635-.9521.2635a1.9288 1.9288 0 01-.429-.0508c-.1489-.0341-.2815-.0799-.3968-.1378v.795c0 .141-.0275.2779-.0828.4086-.0545.1307-.123.2333-.2043.3066-.082.0738-.162.11-.24.11zm1.3132-4.586c-.1413 0-.2818.0262-.421.0785a1.0797 1.0797 0 00-.3656.2279v1.676c.231.1308.4773.1964.7395.1964.2722 0 .5021-.1048.6881-.3151.186-.2093.2797-.4686.2797-.7779 0-.3146-.0865-.5747-.2595-.7792-.1733-.2045-.3937-.3066-.6612-.3066zm4.3426 3.1225c-.3779 0-.7197-.0936-1.0266-.2825-.3064-.189-.5456-.4366-.716-.7435-.1706-.3069-.2556-.6413-.2556-1.0033 0-.3879.0969-.7416.2913-1.062.1937-.3199.4456-.5678.7552-.7435.309-.1757.6421-.2635.9988-.2635.304 0 .6003.0839.8887.2516.1834-.1207.367-.181.5506-.181.194 0 .2913.0892.2913.2678v2.934c0 .1415-.0275.2783-.0828.4093-.055.1312-.1233.2333-.2045.3069-.0815.0733-.1612.1095-.2395.1095-.1209 0-.2521-.0987-.3934-.299-.0524-.0833-.0894-.1569-.11-.2201-.0424.1156-.0982.2151-.1697.2995-.0706.0839-.1452.1386-.2238.1654-.11.0367-.228.0545-.354.0545zm.0709-.975c.236 0 .4564-.0655.661-.1965v-1.786c-.1943-.1103-.412-.165-.653-.165-.299 0-.5494.101-.7518.303-.2018.2018-.3026.4553-.3026.759s.1008.5614.3026.771c.2024.2098.45.3146.7438.3146zm5.4911.975c-.1206 0-.2518-.0986-.3931-.2989-.0842-.1357-.126-.2381-.126-.3064V5.7515c0-.126-.0434-.2289-.1296-.3103-.0865-.0818-.1985-.1225-.335-.1225-.2881 0-.658.155-1.1088.4643v1.7383c0 .1416-.0276.2784-.0829.4093-.055.1313-.123.2334-.204.307-.0814.0732-.1614.1095-.2397.1095-.1209 0-.2521-.0987-.394-.299-.0833-.1357-.1256-.2381-.1256-.3064V4.8072c0-.1153.0802-.2254.24-.3304.1598-.1048.3315-.1572.5151-.1572.194 0 .2913.0892.2913.2677v.1887c.477-.3514.9361-.527 1.3764-.527.2365 0 .4498.0627.641.1886.1922.126.34.2913.4448.4956.1048.2047.1575.4275.1575.6688v1.9193c0 .1416-.0276.2784-.0829.4093-.0547.1313-.1227.2334-.2045.307-.0815.0732-.1611.1095-.24.1095zm.9279-3.3585c-.047-.0945-.0706-.1654-.0706-.2125 0-.11.0757-.2138.228-.3109.1522-.097.3144-.1455.4877-.1455.1265 0 .21.0497.2521.1492l.944 1.9902.8023-1.7542c.047-.105.1415-.1955.283-.2712.1414-.076.2885-.1143.4404-.1143.1942 0 .2915.0892.2915.2678a.9865.9865 0 01-.0865.401l-2.0614 4.4446c-.0576.1158-.1246.2074-.2005.2757-.0762.068-.1508.102-.2246.102-.1157 0-.2435-.0936-.3853-.283-.0786-.1204-.1177-.223-.1177-.3067 0-.0312.0132-.0786.0391-.141l.6843-1.479z" fill="#990ae3"/></svg>